<svg id="Layer_1" data-name="Layer 1" xmlns="http://www.w3.org/2000/svg" viewBox="0 0 215.68 162.02"><defs><style>.cls-1{opacity:0.33;}.cls-2{fill:#fff;}</style></defs><g class="cls-1"><path d="M50.86,143.45c.09,5.11-3,10.27-10.09,10.27H32.84V133.53h7.93C47.69,133.53,50.77,138.46,50.86,143.45Zm-14.25,6.61h4.16c4.58,0,6.4-3.35,6.31-6.64-.08-3.14-1.93-6.28-6.31-6.28H36.61Z"/><path d="M68.43,153.72H53.32V133.53H68.43v3.69H57.09v4.65H68v3.54H57.09V150H68.43Z"/><path d="M89.08,133.56v11.57c0,6-3.66,9-8.74,9-4.84,0-9-2.94-9-9V133.56h3.78v11.57c0,3.63,2.08,5.56,5.22,5.56s4.93-2.1,4.93-5.56V133.56Z"/><path d="M98,152.61a9.82,9.82,0,0,1-3.85-3.71,10.64,10.64,0,0,1,0-10.55A9.82,9.82,0,0,1,98,134.64a11.94,11.94,0,0,1,11,0,9.88,9.88,0,0,1,3.84,3.69,10.85,10.85,0,0,1,0,10.59,9.88,9.88,0,0,1-3.84,3.69,11.94,11.94,0,0,1-11,0Zm9.5-2.24a7.33,7.33,0,0,0,2.8-2.78,8.15,8.15,0,0,0,0-7.93,7.43,7.43,0,0,0-2.8-2.79,7.93,7.93,0,0,0-4-1,8.17,8.17,0,0,0-4,1,7.41,7.41,0,0,0-2.82,2.79,8.15,8.15,0,0,0,0,7.93,7.31,7.31,0,0,0,2.82,2.78,8.07,8.07,0,0,0,4,1A7.84,7.84,0,0,0,107.53,150.37Z"/><path d="M136,133.53v20.19h-2.37l-12.11-15.06v15.06h-2.89V133.53H121l12.11,15.06V133.53Z"/><path d="M142.08,133.53h8.5a12.29,12.29,0,0,1,5.69,1.27,9.27,9.27,0,0,1,3.85,3.56,10.8,10.8,0,0,1,0,10.53,9.27,9.27,0,0,1-3.85,3.56,12.29,12.29,0,0,1-5.69,1.27h-8.5Zm8.33,17.68a9.37,9.37,0,0,0,4.31-1,6.87,6.87,0,0,0,2.87-2.67,8.29,8.29,0,0,0,0-7.93,6.8,6.8,0,0,0-2.87-2.67,9.37,9.37,0,0,0-4.31-1H145v15.17Z"/><path d="M178.48,148.67H167.75l-2.22,5.05h-3l9.14-20.19h2.86l9.17,20.19h-3Zm-1-2.3-4.36-9.9-4.35,9.9Z"/><path d="M208.47,82.3a1.11,1.11,0,0,1,.48,2.12c-13.46,6.38-54.29,24.9-72,23.64A44.33,44.33,0,0,1,96.68,82.3Z"/><path d="M160.79,26.35a44.34,44.34,0,0,0-64.11,56H11.35a3.19,3.19,0,0,1,.28-1.12,2.63,2.63,0,0,1,1-1.16C31.13,67.52,48.75,53.63,66,39.39c15.56-12.87,30.41-24.74,51.29-27.95a52.09,52.09,0,0,1,7.79-.6c16.77,0,29.11,7.67,36.66,14.31A.75.75,0,0,1,160.79,26.35Z"/></g><path class="cls-2" d="M48.66,140.25c.09,5.11-3,10.27-10.09,10.27H30.64V130.33h7.93C45.49,130.33,48.57,135.26,48.66,140.25Zm-14.25,6.61h4.16c4.58,0,6.4-3.35,6.31-6.64-.08-3.14-1.93-6.28-6.31-6.28H34.41Z"/><path class="cls-2" d="M66.23,150.52H51.12V130.33H66.23V134H54.89v4.65H65.82v3.54H54.89v4.56H66.23Z"/><path class="cls-2" d="M86.88,130.36v11.57c0,6-3.66,9-8.74,9-4.84,0-9-2.94-9-9V130.36H73v11.57c0,3.63,2.08,5.56,5.22,5.56s4.93-2.1,4.93-5.56V130.36Z"/><path class="cls-2" d="M95.83,149.41A9.82,9.82,0,0,1,92,145.7a10.64,10.64,0,0,1,0-10.55,9.82,9.82,0,0,1,3.85-3.71,11.94,11.94,0,0,1,11,0,9.88,9.88,0,0,1,3.84,3.69,10.85,10.85,0,0,1,0,10.59,9.88,9.88,0,0,1-3.84,3.69,11.94,11.94,0,0,1-11,0Zm9.5-2.24a7.33,7.33,0,0,0,2.8-2.78,8.15,8.15,0,0,0,0-7.93,7.43,7.43,0,0,0-2.8-2.79,7.94,7.94,0,0,0-4-1,8.17,8.17,0,0,0-4,1,7.41,7.41,0,0,0-2.82,2.79,8.15,8.15,0,0,0,0,7.93,7.31,7.31,0,0,0,2.82,2.78,8.07,8.07,0,0,0,4,1A7.84,7.84,0,0,0,105.33,147.17Z"/><path class="cls-2" d="M133.82,130.33v20.19h-2.37l-12.11-15.06v15.06h-2.89V130.33h2.37l12.11,15.06V130.33Z"/><path class="cls-2" d="M139.88,130.33h8.5a12.29,12.29,0,0,1,5.69,1.27,9.33,9.33,0,0,1,3.85,3.56,10.8,10.8,0,0,1,0,10.53,9.33,9.33,0,0,1-3.85,3.56,12.29,12.29,0,0,1-5.69,1.27h-8.5ZM148.21,148a9.37,9.37,0,0,0,4.31-.95,6.87,6.87,0,0,0,2.87-2.67,8.29,8.29,0,0,0,0-7.93,6.8,6.8,0,0,0-2.87-2.67,9.37,9.37,0,0,0-4.31-.95h-5.45V148Z"/><path class="cls-2" d="M176.28,145.47H165.55l-2.22,5.05h-3l9.14-20.19h2.86l9.17,20.19h-3Zm-1-2.31-4.36-9.89-4.35,9.89Z"/><path class="cls-2" d="M206.27,79.1a1.11,1.11,0,0,1,.48,2.12c-13.46,6.38-54.29,24.9-72,23.64A44.33,44.33,0,0,1,94.48,79.1Z"/><path class="cls-2" d="M158.59,23.15a44.34,44.34,0,0,0-64.11,56H9.15A3.19,3.19,0,0,1,9.43,78a2.63,2.63,0,0,1,1-1.16c18.52-12.5,36.14-26.39,53.35-40.63C79.32,23.32,94.17,11.45,115.05,8.24a52.09,52.09,0,0,1,7.79-.6C139.61,7.64,152,15.31,159.5,22A.75.75,0,0,1,158.59,23.15Z"/></svg>